<?xml version="1.0" encoding="UTF-8"?>
<svg xmlns="http://www.w3.org/2000/svg" viewBox="0 0 24 24"><path fill="none" stroke="#384350" stroke-miterlimit="10" d="M15.5 12.5a4.72 4.72 0 0 1 .37-2.1c.68-1.49.63-5.15.63-5.15a.76.76 0 0 0-.75-.75h-2.5a.76.76 0 0 0-.75.75V21.5" style="stroke: #ffffff;"/><path fill="none" stroke="#384350" stroke-miterlimit="10" d="M10.5 13.25a.76.76 0 0 0-.75-.75H4.5a1 1 0 0 0-1 1v8h18v-7" style="stroke: #ffffff;"/><path fill="none" stroke="#384350" stroke-miterlimit="10" d="M10.5 21.5v-8.25a.76.76 0 0 1 .75-.75h6.25M12.5 10.5H16M14.5 4.5v6M10.5 14.5h7M3.5 14.5h3M18.5 14.5v7" style="stroke: #ffffff;"/><path fill="#384350" d="M6 12.5h4.5v9H6zM17 11h5v4h-5zM18.5 16h3v2h-3z" style="fill: #ffffff;"/></svg>
