<svg width="387" height="356" xmlns="http://www.w3.org/2000/svg" xmlns:xlink="http://www.w3.org/1999/xlink" xml:space="preserve" overflow="hidden"><defs><clipPath id="clip0"><rect x="0" y="0" width="387" height="356"/></clipPath></defs><g clip-path="url(#clip0)"><path d="M143.512 106.826 143.512 106.084 122.004 106.084 122.004 84.9468 121.263 84.9468 121.263 106.084 99.7542 106.084 99.7542 85.3176 99.0125 85.3176 99.0125 128.137 77.3069 128.137 77.3069 128.879 99.0125 128.879 99.0125 146.876 99.7542 146.876 99.7542 128.879 121.263 128.879 121.263 136.493 122.004 136.493 122.004 128.879 143.315 128.879 143.315 128.137 122.004 128.137 122.004 106.826 143.512 106.826ZM121.263 128.137 99.7542 128.137 99.7542 106.826 121.263 106.826 121.263 128.137Z" fill="#E4E4E4" transform="scale(1.08708 1)"/><path d="M155.137 89.3612C155.137 94.9266 150.626 99.4382 145.06 99.4382 139.495 99.4382 134.983 94.9266 134.983 89.3612 134.983 83.7958 139.495 79.2842 145.06 79.2842 150.626 79.2842 155.137 83.7958 155.137 89.3612Z" fill="#E6E6E6" transform="scale(1.08708 1)"/><path d="M153.122 90.1025C152.713 90.1025 152.38 89.7702 152.38 89.3608 152.38 85.3247 149.097 82.0409 145.06 82.0409 144.651 82.0409 144.319 81.7087 144.319 81.2993 144.319 80.8899 144.651 80.5576 145.06 80.5576 149.915 80.5576 153.864 84.5066 153.864 89.3608 153.864 89.7706 153.531 90.1025 153.122 90.1025Z" fill="#FFFFFF" transform="scale(1.08708 1)"/><path d="M254.392 211.986 252.167 211.986 252.167 66.9899C252.167 63.8204 249.588 61.242 246.419 61.242L221.202 61.242C218.033 61.242 215.454 63.8204 215.454 66.9899L215.454 80.2698 221.202 80.2698C225.598 80.2698 229.175 83.8465 229.175 88.2428L229.175 93.0636C229.175 97.4598 225.598 101.037 221.202 101.037 216.806 101.037 213.229 97.4598 213.229 93.0636L213.229 82.4948 179.298 82.4948C176.128 82.4948 173.55 85.0732 173.55 88.2428L173.55 153.023 171.325 153.023 171.325 88.2428C171.325 83.8465 174.902 80.2698 179.298 80.2698L213.229 80.2698 213.229 66.9899C213.229 62.5937 216.806 59.017 221.202 59.017L246.419 59.017C250.815 59.017 254.392 62.5937 254.392 66.9899L254.392 211.986ZM215.454 82.4948 215.454 93.0636C215.454 96.2331 218.033 98.8115 221.202 98.8115 224.372 98.8115 226.95 96.2331 226.95 93.0636L226.95 88.2428C226.95 85.0732 224.372 82.4948 221.202 82.4948L215.454 82.4948Z" fill="#E4E4E4" transform="scale(1.08708 1)"/><path d="M225.47 212.242C225.47 212.281 225.467 212.318 225.467 212.357L225.467 212.357C225.467 227.717 237.919 240.169 253.279 240.169L253.279 240.169C268.64 240.169 281.092 227.717 281.092 212.357L281.092 212.357C281.092 212.318 281.089 212.281 281.089 212.242 281.089 212.242 269.151 209.273 253.279 209.273 237.408 209.273 225.47 212.242 225.47 212.242Z" fill="#C4C4C4" transform="scale(1.08708 1)"/><path d="M289.033 180.663 287.619 179.249C285.294 176.924 281.525 176.924 279.2 179.249L269.019 189.431C267.033 188.064 264.862 186.951 262.55 186.133L262.55 157.631 244.008 157.631 244.008 186.133C233.243 189.94 225.519 200.184 225.47 212.242L281.089 212.242C281.071 207.824 280.018 203.652 278.168 199.948L289.033 189.082C291.358 186.757 291.358 182.988 289.033 180.663Z" fill="#E4E4E4" transform="scale(1.08708 1)"/><path d="M292.986 180.438 300.947 180.438 300.947 200.411 292.986 200.411Z" fill="#C4C4C4" transform="matrix(0.738536 0.679377 -0.738536 0.679377 231.483 -148.167)"/><path d="M292.256 186.744 281.538 176.026C281.104 175.591 281.104 174.887 281.538 174.453L281.932 174.059C282.366 173.625 283.07 173.625 283.505 174.059L294.223 184.777C294.658 185.212 294.658 185.916 294.223 186.351L293.83 186.744C293.395 187.179 292.691 187.179 292.256 186.744Z" fill="#E4E4E4" transform="scale(1.08708 1)"/><path d="M253.279 236.995C252.665 236.995 252.167 236.497 252.167 235.883L252.167 212.242C252.167 211.628 252.665 211.13 253.279 211.13 253.894 211.13 254.392 211.628 254.392 212.242L254.392 235.883C254.392 236.497 253.894 236.995 253.279 236.995Z" fill="#FFFFFF" transform="scale(1.08708 1)"/><path d="M274.417 202.401C274.417 203.425 273.587 204.255 272.562 204.255 271.538 204.255 270.708 203.425 270.708 202.401 270.708 201.377 271.538 200.547 272.562 200.547 273.587 200.547 274.417 201.377 274.417 202.401Z" fill="#E6E6E6" transform="scale(1.08708 1)"/><path d="M268.112 205.553C268.112 207.089 266.867 208.334 265.331 208.334 263.795 208.334 262.55 207.089 262.55 205.553 262.55 204.017 263.795 202.772 265.331 202.772 266.867 202.772 268.112 204.017 268.112 205.553Z" fill="#FFFFFF" transform="scale(1.08708 1)"/><path d="M249.2 196.653C249.2 198.189 247.955 199.434 246.419 199.434 244.883 199.434 243.637 198.189 243.637 196.653 243.637 195.117 244.883 193.872 246.419 193.872 247.955 193.872 249.2 195.117 249.2 196.653Z" fill="#FFFFFF" transform="scale(1.08708 1)"/><path d="M248.088 153.021 258.285 153.021 258.285 176.2 248.088 176.2Z" fill="#C4C4C4" transform="scale(1.08708 1)"/><path d="M263.384 160.325 243.174 160.325C242.355 160.325 241.691 159.661 241.691 158.842L241.691 158.1C241.691 157.281 242.355 156.617 243.174 156.617L263.384 156.617C264.204 156.617 264.868 157.281 264.868 158.1L264.868 158.842C264.868 159.661 264.204 160.325 263.384 160.325Z" fill="#E4E4E4" transform="scale(1.08708 1)"/><path d="M197.872 175.699 191.234 156.727C191.234 156.727 182.128 153.599 172.437 153.599 162.746 153.599 153.493 156.727 153.493 156.727L146.854 175.699C145.684 180.38 149.224 184.915 154.049 184.915L190.677 184.915C195.502 184.915 199.043 180.38 197.872 175.699Z" fill="#FFC000" transform="scale(1.08708 1)"/><path d="M181.635 129.29 181.635 102.376 163.093 102.376 163.093 129.29 153.493 156.727 191.234 156.727Z" fill="#E4E4E4" transform="scale(1.08708 1)"/><path d="M172.43 181.48C171.816 181.48 171.318 180.982 171.318 180.367L171.318 156.727C171.318 156.112 171.816 155.614 172.43 155.614 173.045 155.614 173.543 156.112 173.543 156.727L173.543 180.367C173.543 180.982 173.045 181.48 172.43 181.48Z" fill="#FFFFFF" transform="scale(1.08708 1)"/><path d="M189.118 165.071C189.118 166.095 188.287 166.925 187.263 166.925 186.239 166.925 185.409 166.095 185.409 165.071 185.409 164.047 186.239 163.216 187.263 163.216 188.287 163.216 189.118 164.047 189.118 165.071Z" fill="#FFFFFF" transform="scale(1.08708 1)"/><path d="M185.409 171.56C185.409 173.096 184.164 174.341 182.628 174.341 181.092 174.341 179.847 173.096 179.847 171.56 179.847 170.024 181.092 168.779 182.628 168.779 184.164 168.779 185.409 170.024 185.409 171.56Z" fill="#FFFFFF" transform="scale(1.08708 1)"/><path d="M167.246 97.5815 177.444 97.5815 177.444 120.761 167.246 120.761Z" fill="#737373" transform="scale(1.08708 1)"/><path d="M182.469 104.81 162.258 104.81C161.439 104.81 160.775 104.146 160.775 103.327L160.775 102.585C160.775 101.766 161.439 101.102 162.258 101.102L182.469 101.102C183.288 101.102 183.952 101.766 183.952 102.585L183.952 103.327C183.952 104.146 183.288 104.81 182.469 104.81Z" fill="#E4E4E4" transform="scale(1.08708 1)"/><path d="M94.4946 262.902 101.133 243.929C101.133 243.929 109.895 240.819 119.905 240.819 129.915 240.819 138.874 243.929 138.874 243.929L145.512 262.902C146.683 267.583 143.142 272.117 138.317 272.117L101.69 272.117C96.865 272.117 93.3247 267.583 94.4946 262.902Z" fill="#505050" transform="scale(1.08708 1)"/><path d="M129.274 216.492 129.274 189.579 110.733 189.579 110.733 216.492 101.133 243.929 138.874 243.929Z" fill="#E4E4E4" transform="scale(1.08708 1)"/><path d="M119.937 268.682C119.322 268.682 118.824 268.184 118.824 267.57L118.824 245.047C118.824 244.432 119.322 243.934 119.937 243.934 120.551 243.934 121.049 244.432 121.049 245.047L121.049 267.57C121.049 268.184 120.551 268.682 119.937 268.682Z" fill="#737373" transform="scale(1.08708 1)"/><path d="M129.421 232.809C129.421 233.833 128.591 234.663 127.567 234.663 126.543 234.663 125.713 233.833 125.713 232.809 125.713 231.785 126.543 230.955 127.567 230.955 128.591 230.955 129.421 231.785 129.421 232.809Z" fill="#D2D2D2" transform="scale(1.08708 1)"/><path d="M126.083 225.949C126.083 227.485 124.838 228.73 123.302 228.73 121.766 228.73 120.521 227.485 120.521 225.949 120.521 224.413 121.766 223.167 123.302 223.167 124.838 223.167 126.083 224.413 126.083 225.949Z" fill="#D2D2D2" transform="scale(1.08708 1)"/><path d="M121.042 221.442 118.817 221.442 118.817 175.445C118.817 172.276 116.239 169.697 113.069 169.697L107.912 169.697 107.912 180.266C107.912 184.662 104.336 188.239 99.9396 188.239 95.5434 188.239 91.9667 184.662 91.9667 180.266L91.9667 175.445C91.9667 171.049 95.5434 167.472 99.9396 167.472L105.688 167.472 105.688 162.941C105.688 158.545 109.264 154.968 113.66 154.968L142.94 154.968 142.94 157.193 113.66 157.193C110.491 157.193 107.912 159.771 107.912 162.941L107.912 167.472 113.069 167.472C117.466 167.472 121.042 171.049 121.042 175.445L121.042 221.442ZM99.9396 169.697C96.7701 169.697 94.1917 172.276 94.1917 175.445L94.1917 180.266C94.1917 183.436 96.7701 186.014 99.9396 186.014 103.109 186.014 105.688 183.436 105.688 180.266L105.688 169.697 99.9396 169.697Z" fill="#E4E4E4" transform="scale(1.08708 1)"/><path d="M114.923 184.784 125.121 184.784 125.121 207.963 114.923 207.963Z" fill="#737373" transform="matrix(-1.08708 -4.47141e-11 4.86077e-11 -1 260.948 392.746)"/><path d="M109.898 192.013 130.109 192.013C130.928 192.013 131.592 191.349 131.592 190.529L131.592 189.788C131.592 188.969 130.928 188.304 130.109 188.304L109.898 188.304C109.079 188.304 108.415 188.969 108.415 189.788L108.415 190.529C108.415 191.349 109.079 192.013 109.898 192.013Z" fill="#E4E4E4" transform="scale(1.08708 1)"/><path d="M157.604 281.567C157.604 284.509 159.989 286.894 162.931 286.894 165.873 286.894 168.257 284.509 168.257 281.567L168.257 242.442C168.257 242.442 165.712 241.413 162.931 241.413 160.15 241.413 157.604 242.442 157.604 242.442L157.604 281.567Z" fill="#FFC000" transform="scale(1.08708 1)"/><path d="M157.604 211.244 168.258 211.244 168.258 242.442 157.604 242.442Z" fill="#E6E6E6" transform="scale(1.08708 1)"/><path d="M159.892 260.047C159.483 260.047 159.151 259.714 159.151 259.305L159.151 252.908C159.151 252.499 159.483 252.166 159.892 252.166 160.302 252.166 160.634 252.499 160.634 252.908L160.634 259.305C160.634 259.714 160.302 260.047 159.892 260.047Z" fill="#FFFFFF" transform="scale(1.08708 1)"/><path d="M174.602 281.567C174.602 284.509 176.987 286.894 179.928 286.894 182.87 286.894 185.255 284.509 185.255 281.567L185.255 263.749C185.255 263.749 182.413 262.661 179.928 262.661 177.444 262.661 174.602 263.749 174.602 263.749L174.602 281.567Z" fill="#FFC000" transform="scale(1.08708 1)"/><path d="M174.602 211.244 185.255 211.244 185.255 263.749 174.602 263.749Z" fill="#E6E6E6" transform="scale(1.08708 1)"/><path d="M177.062 240.3C176.652 240.3 176.32 239.967 176.32 239.558L176.32 218.42C176.32 218.011 176.652 217.679 177.062 217.679 177.471 217.679 177.803 218.011 177.803 218.42L177.803 239.558C177.803 239.967 177.472 240.3 177.062 240.3Z" fill="#FFFFFF" transform="scale(1.08708 1)"/><path d="M177.062 275.065C176.652 275.065 176.32 274.733 176.32 274.324L176.32 267.927C176.32 267.517 176.652 267.185 177.062 267.185 177.471 267.185 177.803 267.517 177.803 267.927L177.803 274.324C177.803 274.733 177.472 275.065 177.062 275.065Z" fill="#FFFFFF" transform="scale(1.08708 1)"/><path d="M191.499 281.567C191.499 284.509 193.884 286.894 196.825 286.894 199.767 286.894 202.152 284.509 202.152 281.567L202.152 253.45C202.152 253.45 199.977 252.092 196.825 252.092 193.673 252.092 191.499 253.45 191.499 253.45L191.499 281.567Z" fill="#737373" transform="scale(1.08708 1)"/><path d="M191.499 211.244 202.152 211.244 202.152 253.45 191.499 253.45Z" fill="#E6E6E6" transform="scale(1.08708 1)"/><path d="M194.585 240.3C194.176 240.3 193.843 239.967 193.843 239.558L193.843 218.42C193.843 218.011 194.176 217.679 194.585 217.679 194.995 217.679 195.327 218.011 195.327 218.42L195.327 239.558C195.327 239.967 194.995 240.3 194.585 240.3Z" fill="#FFFFFF" transform="scale(1.08708 1)"/><path d="M194.585 263.106C194.176 263.106 193.843 262.774 193.843 262.364L193.843 255.967C193.843 255.558 194.176 255.226 194.585 255.226 194.995 255.226 195.327 255.558 195.327 255.967L195.327 262.364C195.327 262.774 194.995 263.106 194.585 263.106Z" fill="#FFFFFF" transform="scale(1.08708 1)"/><path d="M208.509 242.747 208.509 281.567C208.509 284.509 210.894 286.894 213.835 286.894 216.777 286.894 219.163 284.509 219.163 281.567L219.163 242.738C219.163 242.738 217.062 241.783 213.836 241.783 210.61 241.783 208.509 242.747 208.509 242.747Z" fill="#C4C4C4" transform="scale(1.08708 1)"/><path d="M208.509 211.244 219.163 211.244 219.163 242.765 208.509 242.765Z" fill="#E6E6E6" transform="scale(1.08708 1)"/><path d="M211.36 240.3C210.95 240.3 210.618 239.967 210.618 239.558L210.618 218.42C210.618 218.011 210.95 217.679 211.36 217.679 211.769 217.679 212.101 218.011 212.101 218.42L212.101 239.558C212.101 239.967 211.769 240.3 211.36 240.3Z" fill="#FFFFFF" transform="scale(1.08708 1)"/><path d="M211.36 260.047C210.95 260.047 210.618 259.714 210.618 259.305L210.618 252.908C210.618 252.499 210.95 252.166 211.36 252.166 211.769 252.166 212.101 252.499 212.101 252.908L212.101 259.305C212.101 259.714 211.769 260.047 211.36 260.047Z" fill="#FFFFFF" transform="scale(1.08708 1)"/><path d="M153.525 241.709 222.5 241.709 222.5 244.676 153.525 244.676Z" fill="#C4C4C4" transform="scale(1.08708 1)"/><path d="M267.742 285.967 238.075 285.967 238.075 282.236C238.075 279.791 240.057 277.809 242.502 277.809L263.314 277.809C265.759 277.809 267.741 279.791 267.741 282.236L267.741 285.967Z" fill="#E4E4E4" transform="scale(1.08708 1)"/><path d="M245.492 266.532C245.492 262.436 252.908 253.182 252.908 253.182 252.908 253.182 260.325 262.436 260.325 266.532 260.325 270.628 257.005 273.949 252.908 273.949 248.812 273.949 245.492 270.628 245.492 266.532Z" fill="#FFC000" transform="scale(1.08708 1)"/><path d="M248.458 269.87C248.458 267.412 252.908 262.453 252.908 262.453 252.908 262.453 257.358 267.412 257.358 269.87 257.358 272.327 255.366 274.319 252.908 274.319 250.451 274.319 248.458 272.327 248.458 269.87Z" fill="#FFFFFF" transform="scale(1.08708 1)"/><path d="M246.419 274.505 259.398 274.505 259.398 278.213 246.419 278.213Z" fill="#505050" transform="scale(1.08708 1)"/><path d="M252.695 273.207 252.167 268.015C252.125 267.606 252.423 267.24 252.833 267.198 253.242 267.156 253.608 267.455 253.65 267.864 253.655 267.914 253.654 267.967 253.65 268.015L253.122 273.207C253.11 273.325 253.005 273.411 252.887 273.399 252.783 273.388 252.705 273.306 252.695 273.207Z" fill="#D2D2D2" transform="scale(1.08708 1)"/><path d="M263.663 280.994 245.492 280.994C245.287 280.994 245.121 280.828 245.121 280.623 245.121 280.419 245.287 280.252 245.492 280.252L263.663 280.252C263.867 280.252 264.033 280.419 264.033 280.623 264.033 280.828 263.867 280.994 263.663 280.994Z" fill="#FFFFFF" transform="scale(1.08708 1)"/><path d="M266.701 183.432 221.745 183.432C220.889 180.802 218.675 178.785 215.928 178.217L215.928 136.544C219.468 135.811 222.129 132.676 222.129 128.919 222.129 125.162 219.468 122.027 215.928 121.294L215.928 105.927 212.961 105.927 212.961 121.261C209.697 121.846 207.145 124.461 206.65 127.757L147.971 127.436 147.954 130.402 206.773 130.724C207.483 133.713 209.912 136.031 212.961 136.577L212.961 178.184C209.32 178.836 206.554 182.013 206.554 185.842 206.554 189.671 209.32 192.848 212.961 193.5L212.961 204.198 215.928 204.198 215.928 193.467C219.291 192.771 221.853 189.904 222.101 186.398L266.701 186.398 266.701 183.432Z" fill="#C4C4C4" transform="scale(1.08708 1)"/><path d="M211.375 132.627C211.09 132.627 210.805 132.519 210.588 132.301 210.154 131.867 210.154 131.163 210.588 130.728L216.707 124.61C217.141 124.175 217.846 124.175 218.28 124.61 218.715 125.044 218.715 125.748 218.28 126.183L212.162 132.301C211.945 132.519 211.66 132.627 211.375 132.627Z" fill="#E6E6E6" transform="scale(1.08708 1)"/><path d="M217.865 190.107C217.58 190.107 217.295 189.998 217.078 189.781L210.959 183.662C210.525 183.228 210.525 182.523 210.959 182.089 211.394 181.654 212.098 181.654 212.532 182.089L218.651 188.208C219.086 188.642 219.086 189.346 218.651 189.781 218.434 189.998 218.149 190.107 217.865 190.107Z" fill="#E6E6E6" transform="scale(1.08708 1)"/><path d="M78.2151 281.388 78.2151 221.105C81.6078 220.431 84.1996 217.553 84.4495 214.025L132.017 214.025 132.017 211.059 84.0928 211.059C83.2306 208.409 80.99 206.384 78.2151 205.833L78.2151 86.7008 75.2484 86.7008 75.2484 205.82C71.6372 206.497 68.9023 209.661 68.9023 213.469 68.9023 217.277 71.6368 220.441 75.2484 221.118L75.2484 281.388 61.5583 281.388 61.5583 284.355 65.6375 284.355 65.6375 287.322 77.1333 287.322 77.1333 284.355 130.904 284.355 130.904 287.322 142.4 287.322 142.4 284.355 146.85 284.355 146.85 281.388 78.2151 281.388Z" fill="#C4C4C4" transform="scale(1.08708 1)"/><path d="M80.2131 217.734C79.9283 217.734 79.6435 217.625 79.4266 217.408L73.3078 211.289C72.8732 210.855 72.8732 210.15 73.3078 209.716 73.7421 209.281 74.4466 209.281 74.8809 209.716L80.9996 215.835C81.4343 216.269 81.4343 216.973 80.9996 217.408 80.7823 217.625 80.4975 217.734 80.2131 217.734Z" fill="#E6E6E6" transform="scale(1.08708 1)"/></g></svg>