<?xml version="1.0" encoding="UTF-8"?>
<svg xmlns="http://www.w3.org/2000/svg" fill="none" viewBox="0 0 145 146"><path stroke="#000" stroke-miterlimit="10" stroke-width=".93" d="M111.424 54.327c.1-.2 20.7 0 20.7 0v-2.4h-16.3l-3.1-4h-64.1l-8.2 5.3h-4.3v4h68.2c.1 0 5.2 0 7.1-2.9z" style="stroke: #ffffff;"/><path stroke="#000" stroke-linejoin="round" stroke-width=".93" d="M110.324 50.727h-60.6l-6.4 4c1.7-.5 61.6 0 61.6 0s3.9.1 5.6-3.1c.1-.5.1-.9-.2-.9zM111.424 65.127c-1.9-3-7-2.9-7-2.9h-68.2v4h4.3l8.2 5.3h39.6c.5 0 .9.1 1.3.3.5.2 1 .5 1.4.8l.4.4c.1.1.2.3.3.4.1.1.2.3.3.4.2.5.4 1 .4 1.5v3.9l-2 2.5 2 2.6-2 2.6 2 2.4v8.8h3.4v-8.7l-2-2.4 2-2.6-2-2.6 2-2.5v-3.8c0-1.5-.6-3-1.6-4.1-1.4-1.6-3.4-2.6-5.6-2.8h-39l-6.4-4c1.7.5 61.6 0 61.6 0s3.9-.1 5.6 3.1c.2.4.2.8-.1.8h-1.1c-2.2.2-4.2 1.2-5.6 2.8-1 1.1-1.6 2.6-1.6 4.1v3.7l2 2.5-2 2.6 2 2.6-2 2.4v8.7h3.4v-8.7l2-2.4-2-2.6 2-2.6-2-2.5v-3.9c.2-2.2 1.9-3.8 4.1-3.9h3.3l3.1-4h16.3v-2.4c0 .2-20.7.3-20.8.2z" style="stroke: #ffffff;"/><path stroke="#000" stroke-dasharray="1.14 1.14" stroke-linejoin="round" stroke-width=".93" d="M33.824 56.427l-18-8M33.824 59.327l-18 8.1M30.824 58.427l-18 2.1M30.824 57.227l-18-2.2" style="stroke: #ffffff;"/></svg>
