<svg xmlns="http://www.w3.org/2000/svg" viewBox="0 0 24 24"><path fill="none" stroke="#384350" stroke-miterlimit="10" d="M15.5 18v3.5h-7v-12h7V13M8.5 18.5h-5v-11M20.5 12V7.5M7.5 7.5h-4a1 1 0 0 1-1-1v-2a1 1 0 0 1 1-1h6a1 1 0 0 1 1 1v1M13.5 5.5v-1a1 1 0 0 1 1-1h6a1 1 0 0 1 1 1v2a1 1 0 0 1-1 1h-4"/><rect width="9" height="4" x="7.5" y="5.5" fill="none" stroke="#384350" stroke-miterlimit="10" rx="1"/><path fill="none" stroke="#384350" stroke-miterlimit="10" d="M18.5 12.5V22M21.5 15.5l-3-3-3 3"/></svg>